<?xml version="1.0" encoding="utf-8"?>
<!-- Generator: Adobe Illustrator 28.1.0, SVG Export Plug-In . SVG Version: 6.00 Build 0)  -->
<svg version="1.1" id="Calque_1" xmlns="http://www.w3.org/2000/svg" xmlns:xlink="http://www.w3.org/1999/xlink" x="0px" y="0px"
	 viewBox="0 0 512 512" style="enable-background:new 0 0 512 512;" xml:space="preserve">
<style type="text/css">
	.st0{fill:#010202;}
</style>
<path id="arrow-up-svgrepo-com" class="st0" d="M127.8,500.2c15.1,15.1,39.7,15.1,54.8,0c0,0,0,0,0,0l189.6-189.8
	c30.3-30.3,30.3-79.4,0-109.7L182.5,10.9c-15.1-15.1-39.7-15.1-54.8,0s-15.1,39.7,0,54.8l162.4,162.4c15.1,15.1,15.1,39.7,0,54.8
	c0,0,0,0,0,0L127.8,445.3c-15.2,15.1-15.2,39.7-0.1,54.8C127.7,500.1,127.8,500.2,127.8,500.2z"/>
</svg>
