<?xml version="1.0" encoding="utf-8"?>
<!-- Generator: Adobe Illustrator 28.0.0, SVG Export Plug-In . SVG Version: 6.00 Build 0)  -->
<svg version="1.1" id="Calque_1" xmlns="http://www.w3.org/2000/svg" xmlns:xlink="http://www.w3.org/1999/xlink" x="0px" y="0px"
	 viewBox="0 0 512 512" style="enable-background:new 0 0 512 512;" xml:space="preserve">
<style type="text/css">
	.st0{fill-rule:evenodd;clip-rule:evenodd;}
</style>
<g>
	<path class="st0" d="M257.3,115.4c-76.5,0-138.5,62-138.5,138.5s62,138.5,138.5,138.5s138.5-62,138.5-138.5
		S333.8,115.4,257.3,115.4z M257.3,346.2c-51,0-92.3-41.3-92.3-92.3s41.3-92.3,92.3-92.3s92.3,41.3,92.3,92.3
		C349.6,304.9,308.3,346.2,257.3,346.2z"/>
	
		<ellipse transform="matrix(0.7071 -0.7071 0.7071 0.7071 34.2977 313.6021)" class="st0" cx="395.7" cy="115.4" rx="23.1" ry="23.1"/>
	<path class="st0" d="M496.1,75.6c-13.3-26.1-34.5-47.2-60.5-60.5C405.9,0,367.1,0,289.6,0H225C147.4,0,108.6,0,79,15.1
		C52.9,28.4,31.7,49.6,18.5,75.6C3.4,105.2,3.4,144,3.4,221.6v64.6c0,77.5,0,116.3,15.1,146C31.8,458.3,53,479.4,79,492.7
		c29.6,15.1,68.4,15.1,146,15.1h64.6c77.5,0,116.3,0,146-15.1c26.1-13.3,47.2-34.5,60.5-60.5c15.1-29.6,15.1-68.4,15.1-146v-64.6
		C511.2,144.1,511.2,105.3,496.1,75.6z M464.9,286.1c0,39.5,0,66.4-1.7,87.2c-0.2,13-3.1,25.9-8.3,37.8
		c-8.8,17.3-22.9,31.4-40.3,40.3c-11.9,5.2-24.8,8-37.8,8.3c-20.8,1.7-47.7,1.7-87.2,1.7H225c-39.5,0-66.4,0-87.2-1.7
		c-13-0.2-25.9-3.1-37.8-8.3c-17.3-8.8-31.4-22.9-40.3-40.3c-5.2-11.9-8-24.8-8.3-37.8c-1.7-20.8-1.7-47.7-1.7-87.2v-64.6
		c0-39.5,0-66.4,1.7-87.2c0.2-13,3.1-25.9,8.3-37.8c8.8-17.3,22.9-31.4,40.3-40.3c11.9-5.2,24.8-8,37.8-8.3
		c20.8-1.7,47.7-1.7,87.2-1.7h64.6c39.5,0,66.4,0,87.2,1.7c13,0.2,25.9,3.1,37.8,8.3c17.3,8.8,31.4,22.9,40.3,40.3
		c5.2,11.9,8,24.8,8.3,37.8c1.7,20.8,1.7,47.7,1.7,87.2V286.1z"/>
</g>
</svg>
