<?xml version="1.0" encoding="UTF-8"?>
<svg id="Calque_1" xmlns="http://www.w3.org/2000/svg" version="1.1" viewBox="0 0 512 512">
  <!-- Generator: Adobe Illustrator 30.3.0, SVG Export Plug-In . SVG Version: 2.1.3 Build 182)  -->
  <defs>
    <style>
      .st0 {
        fill-rule: evenodd;
      }
    </style>
  </defs>
  <path class="st0" d="M312.1,160.2v20c19.3-12,41.5-19,75.4-19,110.1,0,124.2,82.3,124.2,154v195.5l-127.3,1.1v-187c0-31.4-11.2-37.3-32-37.3s-32,6.2-32,37.3v187l-129-1.1V160.2h120.8ZM128.8,160v351.7H.6V160h128.1,0ZM96.7,192H32.7v287.6h64.1V192h0ZM280.1,192.2h-56.7v286.8l64.9.6v-154.7c0-60.4,40.1-69.4,64.1-69.4s64.1,12,64.1,69.4v154.7l63.2-.6v-163.8c0-88.9-25-121.9-92.2-121.9s-57.9,12-75,26.4l-4.5,3.8h-27.9v-31.2ZM64.7-.2c35.3,0,64.1,28.7,64.1,64.1s-28.7,64.1-64.1,64.1S.6,99.2.6,63.9,29.4-.2,64.7-.2ZM64.7,31.9c-17.6,0-32,14.4-32,32s14.4,32,32,32,32-14.4,32-32-14.4-32-32-32Z"/>
</svg>