<?xml version="1.0" encoding="utf-8"?>
<!-- Generator: Adobe Illustrator 25.4.1, SVG Export Plug-In . SVG Version: 6.00 Build 0)  -->
<svg version="1.1" id="Calque_1" xmlns="http://www.w3.org/2000/svg" xmlns:xlink="http://www.w3.org/1999/xlink" x="0px" y="0px"
	 viewBox="0 0 512 512" style="enable-background:new 0 0 512 512;" xml:space="preserve">
<style type="text/css">
	.st0{fill-rule:evenodd;clip-rule:evenodd;}
</style>
<g id="Page-1">
	<g id="Dribbble-Light-Preview" transform="translate(-180.000000, -7479.000000)">
		<g id="icons" transform="translate(56.000000, 160.000000)">
			<path id="linkedin-_x5B__x23_161_x5D_" class="st0" d="M632.4,7828.4H531.1V7651c0-48.7-21.5-75.8-60-75.8
				c-41.9,0-66.7,28.3-66.7,75.8v177.4H303V7499h101.4v37c0,0,31.8-55.8,103.5-55.8c71.7,0,124.6,43.7,124.6,134.3V7828.4
				L632.4,7828.4z M187.5,7446.3c-34.2,0-61.9-27.9-61.9-62.4c0-34.4,27.7-62.3,61.9-62.3c34.2,0,61.9,27.9,61.9,62.3
				C249.4,7418.4,221.6,7446.3,187.5,7446.3L187.5,7446.3z M125.6,7828.4h126.7V7499H125.6V7828.4z"/>
		</g>
	</g>
</g>
</svg>
