<?xml version="1.0" encoding="UTF-8"?>
<svg id="Calque_1" xmlns="http://www.w3.org/2000/svg" version="1.1" viewBox="0 0 512 512">
  <!-- Generator: Adobe Illustrator 30.3.0, SVG Export Plug-In . SVG Version: 2.1.3 Build 182)  -->
  <path d="M404.6,460.6H107.7c-31.7,0-49.2,0-65.6-8.4-14.5-7.4-26.1-19-33.6-33.6C.1,402.3.1,384.8.1,353.1v-194.6c0-1.6,0-3.2,0-4.7,0-.3,0-.6,0-.9,0-28.2.5-44.5,8.4-60,7.4-14.5,19-26.2,33.6-33.6,16.4-8.4,33.9-8.4,65.6-8.4h297c31.7,0,49.2,0,65.6,8.4,14.5,7.4,26.2,19,33.6,33.6,7.9,15.4,8.3,31.8,8.4,59.9,0,.3,0,.7,0,1,0,1.5,0,3.1,0,4.7v194.6c0,31.7,0,49.2-8.4,65.6-7.4,14.5-19,26.1-33.6,33.6-16.4,8.4-33.9,8.4-65.6,8.4ZM51.3,201.3v151.8c0,22.2,0,36.9,2.8,42.3,2.5,4.8,6.3,8.7,11.2,11.2,5.5,2.8,20.1,2.8,42.3,2.8h297c22.2,0,36.9,0,42.3-2.8,4.8-2.5,8.7-6.3,11.2-11.2,2.8-5.5,2.8-20.1,2.8-42.3v-151.8l-99.7,66.5c-34.2,22.8-53.1,35.4-75.3,40.7-19.5,4.7-40.1,4.7-59.7,0-22.2-5.3-41-17.9-75.2-40.7l-99.7-66.5ZM51.4,139.8l128,85.4c30.3,20.2,45.5,30.3,58.8,33.5,11.7,2.8,24.1,2.8,35.8,0,13.3-3.2,28.5-13.3,58.8-33.5l128-85.4c-.2-11.8-.8-19.8-2.7-23.6-2.5-4.9-6.3-8.7-11.2-11.2-5.5-2.8-20.1-2.8-42.3-2.8H107.7c-22.2,0-36.9,0-42.3,2.8-4.8,2.5-8.7,6.3-11.2,11.2-1.9,3.7-2.5,11.8-2.7,23.6Z"/>
</svg>