<?xml version="1.0" encoding="UTF-8"?>
<svg id="Calque_1" xmlns="http://www.w3.org/2000/svg" version="1.1" viewBox="0 0 512 512">
  <!-- Generator: Adobe Illustrator 30.3.0, SVG Export Plug-In . SVG Version: 2.1.3 Build 182)  -->
  <path d="M106.1,537.5c-18.6,0-37.2-4.9-54.2-14.7-33.9-19.6-54.2-54.7-54.2-93.8V82.6C-2.2,43.5,18.1,8.4,52-11.2c33.9-19.6,74.4-19.6,108.3,0l300,173.2c33.9,19.6,54.2,54.7,54.2,93.8s-20.2,74.2-54.2,93.8l-300,173.2c-17,9.8-35.6,14.7-54.2,14.7ZM106.3,57.5c-5.8,0-10.3,2.1-12.6,3.4-3.8,2.2-12.5,8.6-12.5,21.7v346.4c0,13,8.7,19.5,12.5,21.6,3.8,2.2,13.7,6.5,25,0l300-173.2c11.3-6.5,12.5-17.3,12.5-21.7s-1.2-15.1-12.5-21.7L118.6,61c-4.4-2.6-8.6-3.4-12.4-3.4Z"/>
</svg>