<?xml version="1.0" encoding="UTF-8"?>
<svg xmlns="http://www.w3.org/2000/svg" version="1.1" viewBox="0 0 512 512">
  <defs>
    <style>
      .cls-1 {
        fill-rule: evenodd;
      }
    </style>
  </defs>
  <!-- Generator: Adobe Illustrator 28.7.1, SVG Export Plug-In . SVG Version: 1.2.0 Build 142)  -->
  <g>
    <g id="Calque_1">
      <path class="cls-1" d="M256,0C114.6,0,0,114.6,0,256s114.6,256,256,256,256-114.6,256-256S397.4,0,256,0ZM286.2,376.2c0,16.6-13.4,30-30,30s-30-13.4-30-30v-.3c0-16.6,13.4-30,30-30s30,13.4,30,30v.3ZM286.2,286.2c0,16.6-13.4,30-30,30s-30-13.4-30-30v-150c0-16.6,13.4-30,30-30s30,13.4,30,30v150Z"/>
    </g>
  </g>
</svg>