<?xml version="1.0" encoding="utf-8"?>
<!-- Generator: Adobe Illustrator 25.4.1, SVG Export Plug-In . SVG Version: 6.00 Build 0)  -->
<svg version="1.1" id="Calque_1" xmlns="http://www.w3.org/2000/svg" xmlns:xlink="http://www.w3.org/1999/xlink" x="0px" y="0px"
	 viewBox="0 0 512 512" style="enable-background:new 0 0 512 512;" xml:space="preserve">
<style type="text/css">
	.st0{fill-rule:evenodd;clip-rule:evenodd;}
</style>
<g id="Page-1">
	<g id="Dribbble-Light-Preview" transform="translate(-300.000000, -7442.000000)">
		<g id="icons" transform="translate(56.000000, 160.000000)">
			<path id="youtube-_x5B__x23_168_x5D_" class="st0" d="M450.3,7601.3v-141.8c50.3,23.7,89.3,46.6,135.4,71.2
				C547.7,7551.8,500.6,7575.5,450.3,7601.3 M730.8,7389c-8.7-11.4-23.5-20.3-39.2-23.3c-46.3-8.8-335.2-8.8-381.5,0
				c-12.6,2.4-23.9,8.1-33.6,17c-40.7,37.8-28,240.5-18.1,273.3c4.1,14.2,9.5,24.5,16.2,31.2c8.7,8.9,20.5,15,34.1,17.8
				c38.1,7.9,234.6,12.3,382.1,1.2c13.6-2.4,25.6-8.7,35.1-18C763.5,7650.5,761,7436.4,730.8,7389"/>
		</g>
	</g>
</g>
</svg>
